<svg xmlns="http://www.w3.org/2000/svg" width="211" height="179"><defs><filter id="a" x="335" y="1759" width="91" height="179" filterUnits="userSpaceOnUse"><feFlood result="flood" flood-color="#fff"/><feComposite result="composite" operator="in" in2="SourceGraphic"/><feBlend result="blend" in2="SourceGraphic"/></filter><filter id="b" x="275" y="1759" width="91" height="179" filterUnits="userSpaceOnUse"><feFlood result="flood" flood-color="#fff"/><feComposite result="composite" operator="in" in2="SourceGraphic"/><feBlend result="blend" in2="SourceGraphic"/></filter><filter id="c" x="215" y="1759" width="91" height="179" filterUnits="userSpaceOnUse"><feFlood result="flood" flood-color="#fff"/><feComposite result="composite" operator="in" in2="SourceGraphic"/><feBlend result="blend" in2="SourceGraphic"/></filter></defs><path data-name="Фигура 631 копия 2" d="M335.011 1848.21l1.408-1.41 89.569 89.78-1.407 1.41zm0 .58l1.408 1.41 89.569-89.78-1.407-1.41z" transform="translate(-215 -1759)" opacity=".5" filter="url(#a)" fill="#333" fill-rule="evenodd"/><path data-name="Фигура 631 копия 3" d="M275.011 1848.21l1.408-1.41 89.569 89.78-1.407 1.41zm0 .58l1.408 1.41 89.569-89.78-1.407-1.41z" transform="translate(-215 -1759)" opacity=".2" filter="url(#b)" fill="#333" fill-rule="evenodd"/><path data-name="Фигура 631 копия 4" d="M215.011 1848.21l1.408-1.41 89.569 89.78-1.407 1.41zm0 .58l1.408 1.41 89.569-89.78-1.407-1.41z" transform="translate(-215 -1759)" opacity=".05" filter="url(#c)" fill="#333" fill-rule="evenodd"/></svg>