<svg xmlns="http://www.w3.org/2000/svg" width="211" height="179"><defs><filter id="a" x="1494" y="1759" width="91" height="179" filterUnits="userSpaceOnUse"><feFlood result="flood" flood-color="#fff"/><feComposite result="composite" operator="in" in2="SourceGraphic"/><feBlend result="blend" in2="SourceGraphic"/></filter><filter id="b" x="1554" y="1759" width="91" height="179" filterUnits="userSpaceOnUse"><feFlood result="flood" flood-color="#fff"/><feComposite result="composite" operator="in" in2="SourceGraphic"/><feBlend result="blend" in2="SourceGraphic"/></filter><filter id="c" x="1614" y="1759" width="91" height="179" filterUnits="userSpaceOnUse"><feFlood result="flood" flood-color="#fff"/><feComposite result="composite" operator="in" in2="SourceGraphic"/><feBlend result="blend" in2="SourceGraphic"/></filter></defs><path data-name="Фигура 631 копия 2" d="M1584.99 1848.21l-1.41-1.41-89.57 89.78 1.41 1.41zm0 .58l-1.41 1.41-89.57-89.78 1.41-1.41z" transform="translate(-1494 -1759)" opacity=".5" filter="url(#a)" fill="#333" fill-rule="evenodd"/><path data-name="Фигура 631 копия 3" d="M1644.99 1848.21l-1.41-1.41-89.57 89.78 1.41 1.41zm0 .58l-1.41 1.41-89.57-89.78 1.41-1.41z" transform="translate(-1494 -1759)" opacity=".2" filter="url(#b)" fill="#333" fill-rule="evenodd"/><path data-name="Фигура 631 копия 4" d="M1704.99 1848.21l-1.41-1.41-89.57 89.78 1.41 1.41zm0 .58l-1.41 1.41-89.57-89.78 1.41-1.41z" transform="translate(-1494 -1759)" opacity=".05" filter="url(#c)" fill="#333" fill-rule="evenodd"/></svg>