<svg xmlns="http://www.w3.org/2000/svg" width="24" height="23" viewBox="0 0 307.23 295"><g data-name="Слой 2"><g data-name="Слой 1"><path d="M237.23 0h10v29h60v266H.23c-.06-1.83-.18-3.66-.18-5.48Q0 174.89 0 60.26V28.87h60.23V0h10v28.59h167zm.29 39.23H69.88v21.66H59.66v-21.6H10.37v245.32H297V39.27h-49.63v21.81h-9.86z"/><path d="M105.07 119.31v9.26H50.82v-9.26zm75.74.1v9.23H126.7v-9.23zm75.76-.09v9.39h-54.08v-9.39zm-151.62 35.91v9.38H50.86v-9.38zm75.93.07v9.24H126.7v-9.24zm21.49 9.24v-9.24h54.19v9.24zM50.84 200.67v-9.25h54.05v9.25zm129.98-9.16v9.24H126.7v-9.24zm21.69-.21h53.92v9.49h-53.92zM51.44 236.64v-9.39h54.07v9.39zm129.74-9.33v9.38h-53.75v-9.38z"/></g></g></svg>