<svg xmlns="http://www.w3.org/2000/svg" xmlns:xlink="http://www.w3.org/1999/xlink"><symbol viewBox="0 0 256 512" id="angle-down" xmlns="http://www.w3.org/2000/svg"><path d="M119.5 326.9L3.5 209.1c-4.7-4.7-4.7-12.3 0-17l7.1-7.1c4.7-4.7 12.3-4.7 17 0L128 287.3l100.4-102.2c4.7-4.7 12.3-4.7 17 0l7.1 7.1c4.7 4.7 4.7 12.3 0 17L136.5 327c-4.7 4.6-12.3 4.6-17-.1z"/></symbol><symbol viewBox="0 0 192 512" id="angle-left" xmlns="http://www.w3.org/2000/svg"><path d="M25.1 247.5l117.8-116c4.7-4.7 12.3-4.7 17 0l7.1 7.1c4.7 4.7 4.7 12.3 0 17L64.7 256l102.2 100.4c4.7 4.7 4.7 12.3 0 17l-7.1 7.1c-4.7 4.7-12.3 4.7-17 0L25 264.5c-4.6-4.7-4.6-12.3.1-17z"/></symbol><symbol viewBox="0 0 192 512" id="angle-right" xmlns="http://www.w3.org/2000/svg"><path d="M166.9 264.5l-117.8 116c-4.7 4.7-12.3 4.7-17 0l-7.1-7.1c-4.7-4.7-4.7-12.3 0-17L127.3 256 25.1 155.6c-4.7-4.7-4.7-12.3 0-17l7.1-7.1c4.7-4.7 12.3-4.7 17 0l117.8 116c4.6 4.7 4.6 12.3-.1 17z"/></symbol><symbol viewBox="0 0 256 512" id="angle-up" xmlns="http://www.w3.org/2000/svg"><path d="M136.5 185.1l116 117.8c4.7 4.7 4.7 12.3 0 17l-7.1 7.1c-4.7 4.7-12.3 4.7-17 0L128 224.7 27.6 326.9c-4.7 4.7-12.3 4.7-17 0l-7.1-7.1c-4.7-4.7-4.7-12.3 0-17l116-117.8c4.7-4.6 12.3-4.6 17 .1z"/></symbol><symbol viewBox="0 0 307.23 295" id="calendar" xmlns="http://www.w3.org/2000/svg"><g data-name="Слой 2"><g data-name="Слой 1"><path d="M237.23 0h10v29h60v266H.23c-.06-1.83-.18-3.66-.18-5.48Q0 174.89 0 60.26V28.87h60.23V0h10v28.59h167zm.29 39.23H69.88v21.66H59.66v-21.6H10.37v245.32H297V39.27h-49.63v21.81h-9.86z"/><path d="M105.07 119.31v9.26H50.82v-9.26zm75.74.1v9.23H126.7v-9.23zm75.76-.09v9.39h-54.08v-9.39zm-151.62 35.91v9.38H50.86v-9.38zm75.93.07v9.24H126.7v-9.24zm21.49 9.24v-9.24h54.19v9.24zM50.84 200.67v-9.25h54.05v9.25zm129.98-9.16v9.24H126.7v-9.24zm21.69-.21h53.92v9.49h-53.92zM51.44 236.64v-9.39h54.07v9.39zm129.74-9.33v9.38h-53.75v-9.38z"/></g></g></symbol><symbol viewBox="0 0 480 480" id="calendar-2" xmlns="http://www.w3.org/2000/svg"><g data-name="Слой 2"><g data-name="Слой 1"><path d="M480 37v443H0V37c2.89-3.93 6.7-5.09 11.59-5 20.94.24 41.88.1 62.82.1h5.67c0-7.25.28-13.88-.09-20.48-.27-4.9 1.09-8.7 5-11.6h70c4.21 3 5.24 7.13 5 12.11-.31 6.56-.08 13.15-.08 19.66h160.16c0-6.92.27-13.56-.09-20.16C319.71 6.71 321 2.88 325 0h70c4.2 3 5.24 7.12 5 12.1-.31 6.56-.08 13.14-.08 20 23.15 0 45.57.11 68-.09 4.96-.07 9.08.81 12.08 4.99zm-16.28 426.9V160.27H16.28V463.9zm.11-415.66h-63.9v37.22c0 7.81-2.66 10.45-10.52 10.46h-57.5c-9.66 0-11.83-2.14-11.84-11.62V48.19H159.93v38.13c0 6.59-2.91 9.56-9.37 9.58q-30.5.08-61 0c-6.53 0-9.42-2.93-9.46-9.48-.06-11.17 0-22.33 0-33.5v-4.6H16.18v95.48h447.65zm-319.92-32H96.27v63.49h47.63zm239.83 63.65V16.26h-47.48v63.63z"/><path d="M127.93 400.28v29.27c0 6.23-3.09 10-8 10s-7.85-3.8-7.88-10.08c0-9.33 0-18.66-.09-28a8.18 8.18 0 00-.49-1.56H49.88c-4.45 0-7.88-1.38-9.13-6-1.44-5.4 2.37-9.79 8.73-9.81 18.33-.07 36.66 0 55 0h7.24v-64.17H49.84c-7.07 0-11.19-5.21-8.76-10.92 1.67-3.9 4.94-5 9-4.95 18.66.07 37.33 0 56 0h5.71v-64.13H50.84c-6.7 0-10.47-3-10.36-8.08.1-4.9 3.8-7.76 10.18-7.76h61.49v-33.26c.12-5.68 3-9 7.77-9.06 5-.05 8 3.4 8.07 9.3.06 9.16 0 18.33 0 27.49v5.22h96.14v-27.92c0-1.83-.05-3.67 0-5.5.19-5.28 3.12-8.47 7.77-8.55 4.88-.08 8 3.17 8 8.76.1 9.33 0 18.66 0 28v5.21h96.15v-32.93c0-4.49 1.56-7.88 6.29-8.87 5.43-1.13 9.48 2.48 9.54 8.57.1 9.33 0 18.66 0 28v5.54h78.15c5.83 0 9.48 3.19 9.43 8s-3.7 7.84-9.6 7.84h-77.7v64.14h77.95c7 0 11.15 5.33 8.65 11-1.71 3.86-5 4.89-9 4.88-24-.06-48 0-72 0h-5.56v64.14h75.59c1.33 0 2.67-.07 4 0 4.43.35 7.61 3.54 7.74 7.66a7.93 7.93 0 01-7.8 8.1c-3.15.19-6.33.06-9.5.06h-70.3v11.41c0 6.5.08 13 0 19.5-.09 5.14-3.25 8.56-7.74 8.69s-8-3.46-8.06-8.85c-.09-10 0-20 0-30.35h-96.2v30.12c-.12 5.48-3.24 9-7.87 9.08s-7.91-3.53-7.95-9c-.07-10 0-20 0-30.28zm95.8-96.37v-63.64h-95.46v63.64zm112.17-63.64h-95.63v63.47h95.63zm-112.05 79.94h-95.63v63.57h95.63zm112.06.05h-95.64v63.46h95.63z"/></g></g></symbol><symbol viewBox="0 0 463 196" id="car" xmlns="http://www.w3.org/2000/svg"><g data-name="Слой 2"><g data-name="Слой 1"><path d="M160 196c-1.58-.49-3.14-1-4.74-1.45-13.72-3.46-23-11.83-26.9-25.42-1.14-4-2.9-4.79-6.57-4.76a161.15 161.15 0 01-18.93-.76c-12.27-1.35-18.29-5.74-18.89-18-1-20.71-.37-41.53.4-62.28.36-9.79 7-15.91 16-19.13 9.86-3.52 19.87-6.64 29.68-10.31a20.3 20.3 0 007.57-5.21C144.55 41.12 151 33 157.94 25.42 170.5 11.6 186 3.25 204.69 1.08A33 33 0 00209 0h9a44.63 44.63 0 005.32 1.16C245.18 3.31 267 6 288.91 7.29 309 8.42 324 17.23 335.31 33.38 341 41.56 347 49.57 352.68 57.77a10.86 10.86 0 008.47 5.09 333 333 0 0174.65 17.43c12.53 4.5 24.42 9.56 27.21 24.71v46c-3.13 9.31-9.87 13.13-19.41 13.37-1.47 0-3.66 2.52-4.18 4.27-3.94 13.27-12.56 21.63-25.7 25.52-2.22.66-4.47 1.23-6.71 1.84h-5c-1.58-.48-3.14-1-4.74-1.42-14-3.34-23.27-11.87-27.2-25.66-1.06-3.71-2.6-4.63-6.12-4.62q-80.11.16-160.22.05c-3.83 0-5.47 1.16-6.5 4.93C194 181 186.41 188.91 175 193.09c-3.26 1.2-6.68 2-10 2.91zm-65.51-80.48h-.58c0 8.16-.28 16.34.07 24.48.46 10.74 3.39 13.43 14.06 13.75 4.66.14 9.35-.2 14 .14 3.87.29 5.47-1.17 6.61-4.85a35.78 35.78 0 0168.62.53c.94 3.19 2.42 4.16 5.6 4.15q81-.14 161.92 0c3.25 0 4.54-1.14 5.51-4.22 5-16 18.59-25.91 34.69-25.78 15.84.13 29.36 10.3 34.09 25.94.88 2.91 2.11 4.11 5.21 3.92 5.92-.36 7.86-1.89 8-7.83.18-10.49.14-21 .06-31.48-.11-13.79-2.33-17.1-15.08-22a313.25 313.25 0 00-81.39-19.29 11.42 11.42 0 01-9-5.2c-7.51-10.6-15.06-21.18-22.92-31.51-7.66-10.06-17.4-16.58-30.55-17.68-24.23-2-48.42-4.5-72.62-6.85-23-2.23-41.82 5.74-56.94 22.9-6.55 7.36-12.61 15.1-19.29 22.3A26.47 26.47 0 01135 63.5c-9.93 3.81-20.11 7-30.2 10.4-6.33 2.1-10.19 6.27-10.28 13.17-.11 9.48-.03 18.93-.03 28.45zm310.07 69a25.08 25.08 0 10-25-25 24.79 24.79 0 0025 25.02zm-241.76 0a25.07 25.07 0 10-25.06-25 24.82 24.82 0 0025.07 25.02zM24 196v-11.65h88V196zM0 152h67.62v12H0z"/><path d="M331.17 88.77c-20-2-38.52-3.92-57.06-5.84Q221 77.4 167.82 71.83c-1-.1-2-.21-3-.39-4.82-.87-6.81-4.09-4.44-8.26 14.9-26.28 33-42.92 67.15-38.4 20.94 2.78 42.05 4.33 63.11 6.17 8.85.77 16.46 4.08 21.3 11.33 8.39 12.57 16.15 25.59 23.83 38.62 2.5 4.17-.77 8.01-4.6 7.87zm-9.49-11.64c-7.68-12.21-12.42-24.59-23.27-32.82a11.67 11.67 0 00-5.46-2.31q-17.37-1.94-34.78-3.38c-1-.09-3 1.16-3.12 2-1.74 9.44-3.2 18.93-4.84 29zM174 61.75c5 .57 8.73 1 12.5 1.44 16 1.67 32.07 3.38 48.13 4.85 1.7.15 4.91-1 5.11-2 1.86-9.38 3.22-18.86 4.86-29.23-11.42-.67-22.18-2.17-32.87-1.72-17.41.75-28.44 11.64-37.73 26.66z"/></g></g></symbol><symbol viewBox="0 0 512 512" id="check" xmlns="http://www.w3.org/2000/svg"><path d="M435.848 83.466L172.804 346.51l-96.652-96.652c-4.686-4.686-12.284-4.686-16.971 0l-28.284 28.284c-4.686 4.686-4.686 12.284 0 16.971l133.421 133.421c4.686 4.686 12.284 4.686 16.971 0l299.813-299.813c4.686-4.686 4.686-12.284 0-16.971l-28.284-28.284c-4.686-4.686-12.284-4.686-16.97 0z"/></symbol><symbol id="close" viewBox="0 0 22 22" xmlns="http://www.w3.org/2000/svg"><defs><filter id="ifilter" x=".5" y=".5" width="21" height="21" filterUnits="userSpaceOnUse"><feFlood result="flood" flood-color="#f94242"/><feComposite result="composite" operator="in" in2="SourceGraphic"/><feBlend result="blend" in2="SourceGraphic"/></filter><filter id="ifilter-2" x="299" y="3697" width="9" height="9" filterUnits="userSpaceOnUse"><feFlood result="flood" flood-color="#f94242"/><feComposite result="composite" operator="in" in2="SourceGraphic"/><feBlend result="blend" in2="SourceGraphic"/></filter></defs><g filter="url(#ifilter)"><circle id="iЭллипс_694" data-name="Эллипс 694" cx="11" cy="11" r="10.5" filter="url(#ifilter)" fill="none" stroke="#101213" stroke-width="1"/></g><use xlink:href="#iЭллипс_694" filter="none"/><path id="iФигура_652_копия" data-name="Фигура 652 копия" d="M306.729 3697l1.273 1.59-7.731 7.41-1.271-1.59zm-6.458 0l-1.271 1.59 7.731 7.41 1.273-1.59z" transform="translate(-292.5 -3690.5)" fill="#e3e0e0" fill-rule="evenodd" filter="url(#ifilter-2)"/></symbol><symbol viewBox="0 0 320.2 426.4" id="doc" xmlns="http://www.w3.org/2000/svg"><path d="M0 397.2v-368c.4-.7.6-1.5.9-2.3C4.2 10.2 16.4 0 33.2 0c55.3 0 110.6.1 166 0 9.4-.2 18.5 3.6 25 10.4 28.1 28.2 56.3 56.4 84.5 84.4 8 7.9 11.6 16.9 11.6 28.1-.2 89.5-.2 178.9-.1 268.4.1 3.3-.1 6.7-.7 9.9-3.4 15.6-16 25-33.3 25H33.3c-15.7 0-28-9.4-31.8-23.9-.6-1.6-1-3.4-1.5-5.1zM192.3 21.1H35.7c-10.6 0-14 3.4-14 14.1v357c0 9.3 3.7 13.1 13 13.1h251c9.9 0 13.4-3.6 13.4-13.7V127.8h-6.5c-22.3 0-44.7.1-67 0-19.4-.1-33.1-13.8-33.2-33.1-.1-19.2 0-38.3 0-57.5-.1-5.1-.1-10.3-.1-16.1zm21.6 10.6c-.1 1.1-.2 2.2-.2 3.3v58.5c0 9.5 3.5 13 12.9 13.1h58c1.4 0 2.8-.2 3.9-.3l-74.6-74.6z"/><path d="M160.1 255.9H77.7c-1.8 0-3.6-.2-5.4-.6-5.6-1.4-9-7-7.6-12.6.9-3.7 3.8-6.6 7.4-7.5 1.8-.4 3.6-.6 5.4-.6h165.4c7.3 0 11.6 2.7 12.9 7.9 1.9 7.4-3.3 13.4-11.8 13.4-16.6.1-33.3 0-50 0h-33.9zm.4 42.4H76.6c-7.3 0-12.1-4.1-12.2-10.3-.1-6.4 4.8-10.8 12.3-10.8h167.4c4.7 0 9.2 1.1 10.6 5.7 1 3.6.8 7.3-.5 10.8-1.6 4.1-6 4.7-10.2 4.7-27.9-.1-55.7-.1-83.5-.1zm0 21.7h83.9c7.3 0 11.5 3.8 11.7 10.1.3 5.6-3.9 10.4-9.5 10.9-1 .1-2 .1-3 .1H76.7c-7.7 0-12.7-4.7-12.3-11.2.4-5.9 4.9-9.8 11.6-9.8 28.2-.1 56.3-.1 84.5-.1zm-.3-149.7H75.8c-8.3 0-13.3-6.7-10.6-14 1.8-5 5.7-7.1 10.9-7h167.4c6.5 0 10.4 2.3 12.1 6.8 2.7 7.1-2.3 14.2-10.4 14.2-24.3.1-48.6 0-72.9 0h-12.1zm.9 21.7h83.4c7 0 11.3 3.7 11.6 9.7.5 5.8-3.8 10.8-9.5 11.3-.8.1-1.7.1-2.5.1H76.7c-7.5 0-12.4-4.4-12.3-10.8.2-5.9 4.7-10.2 11.2-10.2h85.5zm-54.2-64.2c-10 0-20 .1-30 0-7.7-.1-12.5-4.2-12.5-10.6s4.9-10.6 12.5-10.6c20.1-.1 40.3-.1 60.5 0 7.5 0 12.4 4.5 12.2 10.9s-4.9 10.3-12.2 10.4c-10.2 0-20.4-.1-30.5-.1z"/></symbol><symbol viewBox="0 0 338 288" id="excel" xmlns="http://www.w3.org/2000/svg"><g id="kСлой_2" data-name="Слой 2"><path d="M189 1.18c-17.6 21.75-35.11 43.56-52.88 65.17-2.91 3.53-3.29 5.7-.34 9.62 20.3 27 40.27 54.31 60.34 81.52 1 1.29 1.81 2.65 3.21 4.72h-20.6c-14.16 0-28.33-.1-42.49.06a7.57 7.57 0 01-7-3.53c-9.76-13.49-19.76-26.81-29.55-40.28-2-2.75-3.19-3.57-5.7-.32-6.84 8.82-14.05 17.34-21.05 26-1.41 1.75-2.73 3-5.29 3-21.49-.11-43-.06-64.48-.08-.6 0-1.2-.14-2.67-.33C7.49 138.1 14 130 20.58 121.91c13.42-16.53 26.88-33.1 40.49-49.5 2.12-2.55 1.57-4-.13-6.32Q37.3 34.18 13.85 2.12C15.39.21 17.55 1 19.44 1Q49.85.82 80.26.8q6.82 9.13 13.64 18.27c4.94 6.64 5.06 6.75 10.07.4S115 7.23 119 0h2c1.67 1.66 3.78.91 5.69.92q31.16.19 62.31.26zM338 181l-73.47-.23c-5.5 0-11-.12-16.5 0-2.86.08-3.76-1.05-3.75-3.81.08-22 .12-44 0-66 0-3.78 2-3.82 4.75-3.81q42 .06 84 0c1.66 0 3.32-.13 5-.2zM0 215c9.09-1.29 18.24-.3 27.35-.51 19.42-.43 38.85-.06 58.28-.17 7.79 0 8-.06 8 7.88v59.85c0 2 .22 4 .34 5.94H92c-1.67-1.68-3.78-.92-5.69-.93Q43.16 287 0 287zm244 73q.17-23.2.33-46.4c0-7.33.2-14.66-.08-22-.15-3.88.95-5.11 5-5.08 23.11.2 46.23.15 69.35.08 6.48 0 13-.36 19.41.37v72q-43.16 0-86.31.08c-1.9 0-4-.76-5.69.92zm-122 0c0-22.63.21-45.25 0-67.88 0-4.35 1-5.63 5.51-5.6q41.68.33 83.37 0c4 0 5 1.14 5 5.05-.12 22.79 0 45.59.08 68.38h-2c-1.32-1.49-3.09-.93-4.68-.94h-80.64c-1.59 0-3.36-.57-4.68.94zM338 73c-14 .1-27.92.25-41.88.3-15.47.06-30.94-.16-46.4.15-4.56.09-5.52-1.37-5.47-5.63.21-20.79.1-41.58.08-62.37 0-1.81-.21-3.63-.32-5.44h2c1.67 1.67 3.79.92 5.69.92Q294.85 1 338 1z" id="kСлой_1-2" data-name="Слой 1" fill="#f5ed26"/></g></symbol><symbol viewBox="0 0 264 512" id="facebook-f" xmlns="http://www.w3.org/2000/svg"><path d="M76.7 512V283H0v-91h76.7v-71.7C76.7 42.4 124.3 0 193.8 0c33.3 0 61.9 2.5 70.2 3.6V85h-48.2c-37.8 0-45.1 18-45.1 44.3V192H256l-11.7 91h-73.6v229"/></symbol><symbol viewBox="0 0 398 305" id="filter" xmlns="http://www.w3.org/2000/svg"><g id="mСлой_2" data-name="Слой 2"><g id="mСлой_1-2" data-name="Слой 1"><path d="M398 42c-2.94 3.56-6.61 4.94-11.31 4.94q-131.69-.14-263.3-.07c-7.65 0-12-3-12.07-8.23s4.46-8.46 12-8.46q131.9 0 263.8-.12c4.72 0 7.74 2.26 10.9 4.94z" fill="#b8b8b8"/><path d="M398 155c-2.6 3.64-5.94 5.1-10.59 5.09q-132.65-.18-265.29-.09c-6.79 0-10-2.4-10.23-7.51-.19-4.67 2.6-8 7.24-8.45a32.87 32.87 0 013.5 0q132.15 0 264.29-.08c4.74 0 8.44 1.08 11.08 5.09zm0 114c-3.23 4.3-7.65 5-12.77 5q-131.49-.16-263-.08c-6.57 0-9.9-2.26-10.33-6.93-.53-5.76 2.7-9.07 9.05-9.08h81q92.5 0 185-.07c4.74 0 8.47 1 11.05 5.14zM0 259c1.78-3.89 2.81-8.07 4.87-11.88 7.74-14.32 24.57-22.14 41.06-18.9 15.46 3 27.95 16.63 30.14 32.13 3.4 24.08-15.84 44.37-38.49 43.7-1.52 0-3.37-.84-4.58 1h-2c.22-2.07-1.44-1.81-2.64-2.14a39.93 39.93 0 01-19.43-12.44C4.4 285.42 2.43 279.1 0 273zm38.4-15.11c-12.67 0-22.26 9.32-22.4 21.85-.14 12.07 10 22.19 22.23 22.26a21.61 21.61 0 0021.89-21.8c.08-12.92-9.04-22.28-21.72-22.31zM0 144c3.28-7.79 6.68-15.43 13.44-21.08 11.7-9.77 24.91-11.75 38.73-6.47s21.74 15.83 23.83 30.6c3.38 23.33-16 46.48-43.38 42.73-15-2-25.24-11.1-30.67-25.36-.57-1.51-.54-3.31-2-4.42zm60.13 7.81c0-12.51-9.31-21.84-21.73-21.86a22.05 22.05 0 10-.13 44.1c12.63.02 21.89-9.41 21.86-22.24zM43 0c8.84 2.45 17 5.83 23.54 12.81 18.9 20.07 9.19 54.57-17.24 62.46A38.94 38.94 0 011.16 48.61C.89 47.68 1 46.58 0 46V32c3.19-9.73 7.42-18.69 16.25-24.82C21.4 3.6 27.42 2.38 33 0zm17.12 38.63c.89-11.41-8.86-22.15-21.84-22.4C26.12 16 16 26.49 16 38.52a22.63 22.63 0 0022.18 22.39c12.26.17 21.92-9.64 21.94-22.28z" fill="#b7b7b7"/></g></g></symbol><symbol viewBox="0 0 448 512" id="instagram" xmlns="http://www.w3.org/2000/svg"><path d="M224.1 141c-63.6 0-114.9 51.3-114.9 114.9s51.3 114.9 114.9 114.9S339 319.5 339 255.9 287.7 141 224.1 141zm0 189.6c-41.1 0-74.7-33.5-74.7-74.7s33.5-74.7 74.7-74.7 74.7 33.5 74.7 74.7-33.6 74.7-74.7 74.7zm146.4-194.3c0 14.9-12 26.8-26.8 26.8-14.9 0-26.8-12-26.8-26.8s12-26.8 26.8-26.8 26.8 12 26.8 26.8zm76.1 27.2c-1.7-35.9-9.9-67.7-36.2-93.9-26.2-26.2-58-34.4-93.9-36.2-37-2.1-147.9-2.1-184.9 0-35.8 1.7-67.6 9.9-93.9 36.1s-34.4 58-36.2 93.9c-2.1 37-2.1 147.9 0 184.9 1.7 35.9 9.9 67.7 36.2 93.9s58 34.4 93.9 36.2c37 2.1 147.9 2.1 184.9 0 35.9-1.7 67.7-9.9 93.9-36.2 26.2-26.2 34.4-58 36.2-93.9 2.1-37 2.1-147.8 0-184.8zM398.8 388c-7.8 19.6-22.9 34.7-42.6 42.6-29.5 11.7-99.5 9-132.1 9s-102.7 2.6-132.1-9c-19.6-7.8-34.7-22.9-42.6-42.6-11.7-29.5-9-99.5-9-132.1s-2.6-102.7 9-132.1c7.8-19.6 22.9-34.7 42.6-42.6 29.5-11.7 99.5-9 132.1-9s102.7-2.6 132.1 9c19.6 7.8 34.7 22.9 42.6 42.6 11.7 29.5 9 99.5 9 132.1s2.7 102.7-9 132.1z"/></symbol><symbol viewBox="0 0 2226.15 312.09" id="logo" xmlns="http://www.w3.org/2000/svg"><defs><style>.ocls-1{fill:#f5ed25}</style></defs><g id="oСлой_2" data-name="Слой 2"><g id="oСлой_1-2" data-name="Слой 1"><path class="ocls-1" d="M1813 312.09q6.34-49.45 12.67-98.89c3.82-30 7.55-60 11.37-90q6.24-49 12.58-97.9c1.08-8.4 2.25-16.79 3.38-25.19q184.25 0 368.5-.09c3.75 0 5 .82 4.58 4.6a99.26 99.26 0 00-.08 10.49c-1.12.56-.92 1.65-1 2.61-.85 6.94-1.71 13.87-2.53 20.81q-4.73 40.15-9.44 80.31-4.22 35.94-8.42 71.88-4.81 40.62-9.61 81.28c-1.6 13.38-3.31 26.74-5 40.11zM1951.87 205c2.37-2.49 3.59-3.82 4.87-5.1 10.46-10.5 20.45-21.43 29.85-32.9 5.49-6.7 10.59-13.67 14-21.73 8.73-20.6 4.32-42.66-11.46-55.5-25.36-20.64-75.61-14-85.27 31.43a25.22 25.22 0 00-.08 10.9c1.52 6.75 7.17 12.26 13.49 13.06 8.21 1 12.19-1.05 16.33-8.43 3.26-5.8 4.59-12.51 8.52-18 4.57-6.35 11.25-8.59 17.4-5.91s9.1 9.24 7.69 16.7c-1.51 8-6 14.35-10.83 20.55-14.45 18.74-30.65 36-46.32 53.67-2.87 3.24-5.84 6.41-7.84 10.3-4.93 9.62-.58 19.41 9.81 22.39a28.57 28.57 0 007.9.94q33.23.07 66.45 0a33.81 33.81 0 0012.24-2c7-2.69 10.45-7.35 10.37-14.24s-3.63-11.75-10.47-14.2a31.5 31.5 0 00-10.74-2c-11.43.07-22.87.07-35.91.07zm165.43-65.36h-.21c0-9.66.35-19.34-.09-29-.5-11-4.14-20.68-14.39-26.36-13-7.23-28.23-3.08-37.21 10.76-13.86 21.36-27.22 43-40.69 64.65a48 48 0 00-7.36 22c-.84 10.92 5.11 18.9 15.88 20.54a51.07 51.07 0 007.45.57c13.5.05 27 .12 40.49 0 3.06 0 4 .8 3.92 3.9-.13 7-.6 14 .9 20.92 1 4.77 3.19 8.74 8 10.67 10.83 4.32 22.08-2.36 23-13.92a125.05 125.05 0 00.19-16.48c-.2-3.78 1-5.3 4.79-5.51 5.35-.3 9.91-2.48 11.3-8.13 2.86-11.67-.66-20-12.58-21-3-.26-3.48-1.49-3.45-4.06.12-9.9.06-19.74.06-29.57z"/><path d="M0 216.09q18.49-49.93 37-99.85c2.42-6.53 4.42-13.23 7.67-19.44 5.59-10.71 14-16.67 26.52-15.7 11.67.9 19 7.71 22.77 18.17 11.15 31.11 21.95 62.34 32.88 93.53 2.69 7.68 5.58 15.3 8 23 4.6 14.45-3.76 24.74-18.8 23.33-6.25-.58-10.27-4.36-13.12-9.57-3.63-6.62-5.14-14-7.43-21.12-.91-2.83-2-4-5.11-4-15.66.17-31.32.13-47 0-2.64 0-3.77.86-4.52 3.39C37 214.46 35 221 32.47 227.3c-4.74 11.86-16.08 15.7-25.86 9.22C3.4 234.39 2 231.08 0 228.09zM67.47 120C62 136.87 56.7 153.37 51.32 169.85c-.83 2.53-.45 3.53 2.54 3.47 8.8-.18 17.62-.24 26.42 0 3.95.12 4.29-1 3.16-4.48-4.47-13.7-8.65-27.5-13-41.24-.78-2.44-.99-5.16-2.97-7.6zm602.06 39c0 17.23-2.74 32-10.37 45.51-12 21.29-30.77 32.08-54.58 34.48-11.63 1.17-23.27.46-34.51-3.38-22.25-7.59-36.63-23-43.82-45a95.05 95.05 0 01-.79-57.54c8.9-29.8 28.94-47.63 60.13-51.37 32.32-3.87 61.59 9.14 75.9 39.48a87.15 87.15 0 018.04 37.82zm-36.5-.24a54.44 54.44 0 00-3.18-20c-5.06-14.26-14.36-24-30.13-25.43-14.77-1.34-26.24 4.87-32.94 17.93-9.27 18.06-9.7 37.07-1.18 55.37 11.07 23.78 42.2 26.83 58.13 6.21 7.36-9.58 9.37-20.79 9.27-34.1zm594.15 5.36c-.29 19-5.67 39.45-22.11 55.74-10.92 10.82-24.27 16.82-39.36 18.68-22.68 2.79-43.85-.83-61.63-16.45-12-10.58-19.14-24.13-22.37-39.69-3.9-18.77-3.53-37.47 3.39-55.5 10.62-27.66 31.18-43 60.55-45.52 26-2.25 48.83 5.09 65.41 26.53 11.99 15.49 16.15 33.6 16.12 56.21zM1117.84 161a52.14 52.14 0 004.25 23.43c5.92 13.24 15.81 21.26 30.72 21.76s26-6.21 32.15-19.44c8.72-18.72 8.3-37.9-1.32-56.21-6.21-11.82-16.77-17.74-30.34-17.44-13.41.3-22.94 7-29.27 18.5-4.87 8.85-6.35 18.49-6.19 29.4zm-838.76-5.38a2.91 2.91 0 002.05 1.54c17.74 6.77 24.65 17.93 22.29 39.58-2.57 23.58-18.57 38.09-43.52 40.19-17.1 1.44-34.29 1.1-51.42.25-13.14-.65-18.13-5.67-18.22-18.77q-.39-57 0-114c.11-15 6.67-21.39 21.63-21.25 16.61.15 33.32-1.66 49.83 1.77a57.79 57.79 0 0112.73 4.23c21.39 10 29.09 35 17 55.35-2.92 5.02-7.45 8.3-12.37 11.11zm-53.91 33.25v14.95c0 1.35-.62 3.33 1.82 3.24 9.58-.33 19.29 1.23 28.71-1.66 7.63-2.34 11.13-7.89 10.78-16.87-.36-9.54-4.07-14.53-12.23-16.33-8.87-2-17.87-.77-26.82-1.11-2.21-.08-2.32 1.18-2.31 2.84.08 4.98.05 9.96.05 14.94zm.35-60.54h-.35c0 4 .09 8 0 12-.06 2.08.51 3 2.77 3 6.49-.17 13 .18 19.46-.36 9-.75 13.11-5.23 13.46-13.63s-4-13.63-12.6-15.2a38.25 38.25 0 00-7.93-.78c-4.92.15-11.52-2.2-14.28 1-2.41 2.75-.53 9.17-.53 13.97zM727 161.89v-54.47c0-16.26 8-24.31 24.2-24.32h85.45c16.81 0 24.94 7.33 25.09 24.05.31 36.31.13 72.62 0 108.93a42.71 42.71 0 01-1.36 9.86c-2.27 9.34-7.42 13.36-16.58 13.32-8.73 0-13.65-4.15-16.06-13.35A50.4 50.4 0 01826.5 213c0-31.31-.08-62.63.09-93.94 0-4-1.14-5-5-4.93q-27.48.3-55 0c-3.69 0-4.71.82-4.69 4.62.17 32.31.08 64.63.12 96.94a42.13 42.13 0 01-1.13 10.39c-2.22 8.83-7.63 13.14-16.32 13.14s-14.13-4.15-16.38-13a41.54 41.54 0 01-1.19-10.37v-53.96zm592.17-22.4c12.45-12.83 24-24.77 35.6-36.65 5.93-6.07 11.59-12.43 18.3-17.68 9-7 20.48-4.55 25.71 5.58 2.78 5.37 2.44 10.73-1.59 15.37-4.26 4.89-8.71 9.63-13.31 14.21-9.78 9.77-19.63 19.47-29.63 29-2.54 2.42-2.9 3.77-.32 6.61 14.66 16.14 29.07 32.51 43.55 48.8a45.37 45.37 0 017.87 11.48c3.31 7.39 1.73 14.21-4.41 19.27a16.2 16.2 0 01-20.29.66 57.1 57.1 0 01-9.19-9.14c-14.21-16.55-28.38-33.13-42.7-49.58-1.16-1.33-1.74-4.8-4.65-3.07-2.58 1.54-5.19 3.09-5.07 7.19.34 11 .1 22 .12 33 0 5-.38 10-2.23 14.72-2.59 6.62-7.4 9.89-14.57 10-8.18.13-13-2.7-15.89-9.53a36.11 36.11 0 01-2.5-14.16V105.11a43.69 43.69 0 011.33-10.88c2.27-8.88 7.66-13.15 16.32-13.14s14 4.34 16.3 13.22c1.68 6.38 1.19 12.9 1.22 19.39.06 8.14.03 16.3.03 25.79zm262.46 99.78c-9.51.17-14.76-4.1-17.69-11.05a183.56 183.56 0 01-6.78-19.78c-.86-2.94-2.08-3.93-5.14-3.9q-23.24.23-46.49 0c-3.14 0-4.26 1.12-5.16 3.93-2.38 7.42-4 15.13-7.76 22-4.14 7.71-11.72 10.65-19.92 8.15-7.44-2.27-11.75-9-11.13-17.42a37.79 37.79 0 012.29-10.67c5.15-13.67 10.1-27.42 15.15-41.12q12-32.49 24-65a53.87 53.87 0 015.4-11.2c11.6-17.62 36.2-16.42 45.6 2.59 6 12.08 9.33 25.21 13.85 37.87 9.42 26.43 18.55 53 27.79 79.47.55 1.57 1.07 3.15 1.47 4.76 3.1 12.49-3.99 21.43-15.48 21.37zm-69.64-66h31.8c3.68 0 1.88-2.18 1.42-3.65q-5.87-19-11.84-38c-1.19-3.79-2.39-7.57-4-12.55zM915.49 161v-56.45c.61-15.36 6.56-21.45 22-21.41 15 0 30-1 44.9.68 29.13 3.23 49.4 24.92 45.17 60-3.29 27.28-20.82 42.77-48.57 44-8.14.36-16.32.34-24.46.12-3.39-.09-4.05 1-4.06 4.19 0 10.15.75 20.32-.45 30.43-1.37 11.52-7.51 17-18.33 16.63-7-.22-12.06-4-14.39-11a40.05 40.05 0 01-1.77-12.79q-.03-27.15-.04-54.4zm35-25.5v17c0 1.62-.36 3.49 2.31 3.41 7.48-.22 15 .68 22.4-1 9.21-2.13 14.44-9 14.61-18.88s-4.73-16.68-14.16-19.09c-7.52-1.92-15.22-1.2-22.86-1.35-2.66 0-2.3 1.81-2.3 3.44-.01 5.5 0 10.97 0 16.5zM1726 170.1v48a30.53 30.53 0 01-1.7 9.79c-2.65 7.86-7.45 11.37-15.56 11.4-8.54 0-13.31-3.39-16-11.48A40 40 0 011691 215c0-31.49 0-63 .1-94.47 0-3.6-.66-4.84-4.55-4.72-7.45.25-15 .76-22.29-1.63-7.5-2.45-11.16-6.89-11.25-14-.1-8 3.24-12.64 11-15.23a37 37 0 0111.78-1.88h66a36 36 0 0112.21 2.16c6.87 2.49 10.19 7.27 10.2 14.36s-3.34 11.84-10.25 14.31c-6.23 2.23-12.75 2.1-19.26 2-8.49-.06-8.49 0-8.49 8.67v45.48zm-1327.17-.77c0-16.33-.09-32.66.08-49 0-3.39-.71-4.63-4.34-4.51-6.47.22-13 .49-19.43-.77-10.2-2-14.77-7.42-14.31-17.1.28-5.76 3.27-9.59 8.37-12a33.13 33.13 0 0114.07-2.88q33.24-.09 66.48 0a33.48 33.48 0 0113.14 2.6c6.22 2.65 9.18 7.42 9.11 14.11-.07 6.51-3.15 11-9.17 13.54-7.31 3.1-15 2.91-22.62 2.42-5.38-.35-6.36 1.49-6.32 6.51.25 30.15.12 60.31.13 90.47 0 5.35-.28 10.66-2.1 15.75-2.66 7.4-7.57 10.74-15.58 10.74-8.2 0-12.66-3.1-15.54-10.7a35.42 35.42 0 01-2-12.74q.05-23.2.03-46.44zM1951.87 205h35.92a31.5 31.5 0 0110.74 2c6.84 2.45 10.39 7.28 10.47 14.2s-3.38 11.55-10.37 14.24a33.81 33.81 0 01-12.24 2q-33.23.07-66.45 0a28.57 28.57 0 01-7.9-.94c-10.39-3-14.75-12.77-9.81-22.39 2-3.89 5-7.06 7.84-10.3 15.67-17.69 31.87-34.93 46.32-53.67 4.78-6.2 9.32-12.59 10.83-20.55 1.41-7.46-1.6-14-7.69-16.7s-12.83-.44-17.4 5.91c-3.94 5.47-5.27 12.18-8.52 18-4.14 7.37-8.12 9.48-16.33 8.43-6.32-.8-12-6.31-13.49-13.06a25.22 25.22 0 01.08-10.9c9.66-45.43 59.91-52.07 85.27-31.43 15.78 12.84 20.19 34.9 11.46 55.5-3.41 8.06-8.52 15-14 21.73-9.39 11.47-19.38 22.4-29.85 32.9-1.29 1.19-2.51 2.52-4.88 5.03zm165.43-65.38c0 9.83.06 19.66 0 29.49 0 2.57.47 3.79 3.45 4.06 11.92 1.05 15.45 9.38 12.58 21-1.39 5.65-5.94 7.83-11.3 8.13-3.81.21-5 1.73-4.79 5.51a125.05 125.05 0 01-.19 16.48c-.92 11.56-12.18 18.24-23 13.92-4.84-1.93-7-5.9-8-10.67-1.5-6.91-1-13.94-.9-20.92.06-3.1-.86-3.94-3.92-3.9-13.5.16-27 .1-40.49 0a51.07 51.07 0 01-7.45-.57c-10.77-1.64-16.71-9.62-15.88-20.54a48 48 0 017.36-22c13.47-21.61 26.83-43.29 40.69-64.65 9-13.84 24.17-18 37.21-10.76 10.25 5.68 13.89 15.39 14.39 26.36.44 9.64.09 19.32.09 29zm-32.3-24.81L2048.87 173h33.36c2.25 0 2.81-.87 2.8-2.94-.03-17.9-.03-35.82-.03-55.25z" fill="#242021"/><path class="ocls-1" d="M2085 114.81v55.27c0 2.07-.55 3-2.8 2.94-10.78-.09-21.56 0-33.36 0z"/></g></g></symbol><symbol viewBox="0 0 256 256" id="map" xmlns="http://www.w3.org/2000/svg"><g data-name="Слой 2"><g data-name="Слой 1"><path d="M256 98v125a18.35 18.35 0 00-3.24.94q-30.09 15-60.13 30.06a17.58 17.58 0 00-2.63 2h-4a41.18 41.18 0 00-4.28-3c-16.53-8.87-33.14-17.59-49.61-26.57a7.56 7.56 0 00-8.24 0c-16.62 9-33.37 17.85-50.05 26.79A32.17 32.17 0 0070 256h-4a12.57 12.57 0 00-2.18-1.79q-30.5-15.28-61-30.47A14 14 0 000 223V98c1.55.58 3.12 1.09 4.63 1.75q29.72 12.9 59.43 25.79c1.6.69 3.74 1.62 5.1 1.09 6.58-2.6 13-5.66 19.68-8.65-5.18-9.6-10.1-18.64-15-27.71A61 61 0 01106.73 4c4.63-1.69 9.51-2.7 14.27-4h14a16.25 16.25 0 002.75 1 61.1 61.1 0 0144.47 89c-4.12 7.8-8.47 15.47-12.69 23.22-.76 1.4-1.41 2.85-2.23 4.53 5.09 2.36 10 4.18 14.37 6.77s8 2.22 12.53.22c20.51-9.14 41.19-17.88 61.8-26.74zm-128.21 75.36c.91-1.27 1.34-1.75 1.64-2.3 15.47-28.34 31-56.62 46.33-85.05a50.4 50.4 0 005.63-29 53.64 53.64 0 10-100.8 29.78c6.85 12.75 13.82 25.44 20.76 38.15 8.65 15.91 17.37 31.8 26.44 48.42zm120.28-63.5c-17.95 7.83-34.93 15.37-52.06 22.59-3.38 1.43-4.17 3.28-4.16 6.68.12 33.62.07 67.24.08 100.85 0 1.6.13 3.19.23 5.35 2.08-.94 3.73-1.61 5.32-2.4 15.47-7.71 30.9-15.51 46.44-23.09 3.07-1.5 4.26-3.22 4.24-6.76-.16-31-.09-61.91-.09-92.87v-10.35zm-184 135.42c0-36.69 0-72.33-.15-108 0-1.51-1.88-3.71-3.42-4.4-15.93-7.15-32-14.06-48-21-1.33-.58-2.73-1-4.59-1.67v5.93c0 29 .62 58-.32 86.94-.35 10.92 2.7 16.56 12.85 20.75 14.7 6.09 28.63 13.97 43.63 21.46zm120 0c0-36.79 0-72.59-.07-108.39a4.15 4.15 0 00-1.57-3.19c-6.17-3.11-12.46-6-18.57-8.85a12.28 12.28 0 00-1 1.25c-6.6 12.13-12.53 24.68-19.95 36.29-8.77 13.73-12.24 28-11.31 44.3.46 8 2.11 12.67 9.76 16.22 14.25 6.65 27.93 14.56 42.71 22.38zm-112.14 0c17.25-9.16 33.56-17.75 49.76-26.55a5.75 5.75 0 002.27-4.27c.2-9.65.18-19.31 0-29a11.75 11.75 0 00-1.48-5.13q-13.74-25.67-27.7-51.33c-.76-1.4-1.69-2.71-2.61-4.18-5.48 2.55-10.49 5.2-15.74 7.22-3.77 1.45-4.61 3.69-4.59 7.51.16 33.3.09 66.6.09 99.9z"/><path d="M128.31 94.2A35.26 35.26 0 0192.47 59 35.73 35.73 0 01128 23.22c19.3 0 35.47 16 35.56 35.24.06 20.08-15.25 35.61-35.25 35.74zm-.43-7.8a27.66 27.66 0 10-27.6-27.51 27.35 27.35 0 0027.6 27.5z"/></g></g></symbol><symbol viewBox="0 0 256 256" id="pen" xmlns="http://www.w3.org/2000/svg"><g data-name="Слой 2"><path d="M111 0c13.72 8.1 27.41 16.24 41.16 24.29 13.06 7.64 26.17 15.19 39.59 23-.81 1.57-1.48 3-2.27 4.38q-52.69 91.46-105.33 183A10.47 10.47 0 0177 240c-18 4.67-36 9.55-54 14.39a33.93 33.93 0 00-4 1.61h-2c-2.93-11.34-5.79-22.7-8.83-34-2.61-9.7-5.44-19.34-8.17-29v-3a40.66 40.66 0 003.17-4.18q35.64-61.75 71.21-123.54Q92.27 31.18 110 0zM80 210.39l67-116.32-54.68-31.66-67 116.33zm74.81-129.85l15.88-27.49L116 21.44l-15.87 27.44zM29 235.61L72.24 224l-54.85-31.74zM112 256v-16h144v16z" data-name="Слой 1"/></g></symbol><symbol viewBox="0 0 512 512" id="phone-call" xmlns="http://www.w3.org/2000/svg"><path d="M99 0c8.3 10.6 17.2 20.7 24.6 31.9 18.8 28.3 36 57.6 50.7 88.3 4.7 9.9 4.7 10.5-3.6 17.8-10.6 9.4-21.7 18.2-32 27.9-18.1 16.9-17.2 15.3-9.8 37.8 13.8 42.1 36.7 79 66 112 24.5 27.6 52.4 50.7 86.8 65 12.4 5.3 25.6 8.6 39.1 9.8 8.5.7 15.9-.9 22.3-7.4 10.5-10.7 21.3-21.1 32.4-31.2 9.9-8.9 11.1-9 22.9-2.6 36 19.6 70.6 41.5 103.2 66.5 3.8 2.9 7 6.7 10.4 10v2c-4.7 4.7-9 9.7-14.1 13.9-30.8 25.9-62.6 50.5-98 70.1h-19c-7.2-1.2-14.4-2.2-21.6-3.6-38.3-7.8-72.9-24.3-105.2-45.6C174.7 410 109.5 343 57.7 263.2 34.4 227.3 16 188.9 5.5 147.1c-2.3-9-3.8-18.2-5.7-27.3v-8c.4-.3.7-.6 1-.9C28.7 70.6 59.3 32.7 96 0h3zm413 244l-43.6 6.5c-.6-57.4-19.7-106.7-59.9-146.9s-89.5-59.4-147-60L268 0h12c1.2.4 2.5.7 3.8.9 23.9 1.7 47.2 6.5 69.4 15.7 85.1 35.1 137 97.9 154.9 188.4 1.8 9.3 2.6 18.7 3.9 28.1V244z"/><path d="M402.4 259.7l-43.6 6.2c4.8-33-3.1-62.2-26.7-85.8s-52.7-31.8-86.1-26.9l6.1-43.4c81.5-10.7 159.9 61 150.3 149.9z"/></symbol><symbol viewBox="0 0 256 256" id="play-circle" xmlns="http://www.w3.org/2000/svg"><g data-name="Слой 2"><g data-name="Слой 1"><path d="M138 256h-20c-1.44-.32-2.87-.75-4.33-1-52.16-7.49-87.75-35.93-106.31-85.1C3.54 159.81 2.38 148.67 0 138v-20c.32-1.44.74-2.87 1-4.33C8.49 61.31 37 25.65 86.53 7.23c10-3.72 21-4.89 31.47-7.23h20a30.84 30.84 0 003.84.9A127.42 127.42 0 01252.1 97.48c1.64 6.76 2.62 13.68 3.9 20.52v20a38.44 38.44 0 00-1 4.34c-5.28 50.75-42.32 94.74-91.73 108.49-8.27 2.31-16.82 3.48-25.27 5.17zm-9.64-228.06c-54.42-.45-100 44.18-100.41 98.32-.42 55.87 43.51 101.31 98.43 101.8 56.12.5 101.25-43.69 101.69-99.57.43-55.14-44.14-100.09-99.71-100.55z"/><path d="M100.07 128V90c0-6.38 3.78-8.64 9-5.18q29.16 19.24 58.1 38.8c4.35 2.94 4.29 10-.18 12.69q-29 17.66-58.16 35c-5.08 3-8.75.63-8.78-5.36-.05-12.62.02-25.27.02-37.95z"/></g></g></symbol><symbol viewBox="0 0 183 146" id="purse" xmlns="http://www.w3.org/2000/svg"><g data-name="Слой 2"><g data-name="Слой 1"><g data-name="Слой 2"><g data-name="Слой 1-2"><path d="M152 146H23c-11.4-2.9-19.4-9.5-23-21V21C2.5 15 4.9 8.9 10.9 5.4c3.8-2.2 8-3.6 12.1-5.4h130a14.72 14.72 0 002.2 1c13.5 3.5 20.7 12.8 20.7 26.7 0 7-.1 13.9.1 20.9a8 8 0 001.5 4.3A79.66 79.66 0 00183 59v35c-8.7 6.7-8.1 16-7.9 25.6.3 12.6-7.6 22.1-19.9 25.3-1.1.3-2.1.7-3.2 1.1zm15.7-43.7l-5.2-.3c-7.7 0-15.3.2-23-.1a25.88 25.88 0 01-25-24c-.9-12.3 8.3-24.1 21.5-25.9 8.7-1.2 17.6-.6 26.4-.8h5.9c0-9.5.2-18.2-.1-26.8a15.8 15.8 0 00-9.4-14.3 27.73 27.73 0 00-11-2.6c-40-.2-80-.1-120-.1a26.93 26.93 0 00-4 .3A18.16 18.16 0 007.6 26c-.1 31.3-.1 62.7 0 94 0 9.8 6.7 17 16.4 18.3a49.33 49.33 0 005.5.3H146a35.6 35.6 0 006.5-.5c7.9-1.4 14.3-7.4 15.1-15.2.6-6.7.1-13.5.1-20.6zM154.8 95h15.5c3.5 0 5.2-1.5 5.2-5.1 0-8.8-.1-17.6 0-26.4 0-3.3-1.4-5.1-4.7-5.1-10.5 0-21-.4-31.4.2A18.11 18.11 0 00122 77.4c.3 9.6 8.5 17.3 18.9 17.6 4.5.1 9.2 0 13.9 0z"/><path d="M141.1 65.9c6.4 0 11.3 4.8 11.2 10.9a11 11 0 01-11.1 10.6c-6.4.1-11.4-4.7-11.4-10.7a11 11 0 0111.3-10.8zm.3 16c1.6-2.6 3.5-4.3 3.3-5.5s-2.6-3.3-3.9-3.2-3.3 2.3-3.4 3.6 2 2.7 4 5.1z"/></g></g></g></g></symbol><symbol viewBox="0 0 512.03 512.03" id="search" xmlns="http://www.w3.org/2000/svg"><g data-name="Слой 2"><path d="M3.53 498.6l9.9 9.9a12 12 0 0017 0l129-129a12.3 12.3 0 003.5-8.5v-10.2A207.47 207.47 0 00304 416c114.9 0 208-93.1 208-208S418.93 0 304 0 96 93.1 96 208a207.09 207.09 0 0055.3 141.1H141a11.87 11.87 0 00-8.5 3.5l-129 129a12 12 0 00.03 17zM128 208a176 176 0 11176 176 175.87 175.87 0 01-176-176z" data-name="Слой 1"/></g></symbol><symbol viewBox="0 0 384 512" id="times" xmlns="http://www.w3.org/2000/svg"><path d="M231.6 256l130.1-130.1c4.7-4.7 4.7-12.3 0-17l-22.6-22.6c-4.7-4.7-12.3-4.7-17 0L192 216.4 61.9 86.3c-4.7-4.7-12.3-4.7-17 0l-22.6 22.6c-4.7 4.7-4.7 12.3 0 17L152.4 256 22.3 386.1c-4.7 4.7-4.7 12.3 0 17l22.6 22.6c4.7 4.7 12.3 4.7 17 0L192 295.6l130.1 130.1c4.7 4.7 12.3 4.7 17 0l22.6-22.6c4.7-4.7 4.7-12.3 0-17L231.6 256z"/></symbol><symbol viewBox="0 0 200.12 199.92" id="user" xmlns="http://www.w3.org/2000/svg"><g data-name="Слой 2"><g data-name="Слой 1"><g data-name="Слой 2"><g data-name="Слой 1-2"><path d="M107 0c3.35.87 6.77 1.52 10 2.65 22.3 7.71 36.5 23.07 38.89 46.59 1.58 15.57 1.75 31.85-1 47.18-4.78 27-30 45.39-56.35 43.9C69.91 138.7 47.76 118.94 45 90.67a219.84 219.84 0 01.35-43.83C47.74 24.34 67.6 5 90.25 1.06A36.76 36.76 0 0094 0zm42.63 70h-.71c0-5.49.22-11 0-16.48-1.15-24.05-21.6-44.43-45.54-45.52C78.15 6.88 55.8 24.48 53 48.92a236 236 0 00-.73 37.88c1.19 24.79 20.1 43.48 45.2 45.69 22.85 2 44.91-14 50-37.17 1.8-8.19 1.53-16.84 2.16-25.32z"/><path d="M0 155c3.32-10.88 11.54-16.23 21.81-19.2 7.35-2.12 14.75-4.08 22.1-6.21 2.71-.79 5.18-.84 6.09 2.29s-1.12 4.48-3.88 5.22c-6.91 1.86-13.84 3.66-20.66 5.82a56.89 56.89 0 00-10.93 4.74 12.65 12.65 0 00-6.64 12c.13 5 0 10 0 15C8 185.73 14.2 192 25.25 192h129c7.33 0 14.67.08 22 0 9.27-.13 15.69-6.42 16-15.65.15-5-.21-10 .11-15 .53-8.28-3.68-13.45-10.83-16.1-7.78-2.88-15.9-4.86-23.84-7.32-3-.93-7.64-.92-6.42-5.74s5.29-2.63 8.3-1.8c7.38 2 14.8 4 22 6.47 13.74 4.79 18.52 11.75 18.55 26.06v12.5c-.18 14.63-9.93 24.43-24.56 24.44q-64.75.08-129.49 0h-20c-13.27 0-20.73-5.3-25.21-17.73A5.65 5.65 0 000 181z"/></g></g></g></g></symbol><symbol viewBox="0 0 576 512" id="vk" xmlns="http://www.w3.org/2000/svg"><path d="M545 117.7c3.7-12.5 0-21.7-17.8-21.7h-58.9c-15 0-21.9 7.9-25.6 16.7 0 0-30 73.1-72.4 120.5-13.7 13.7-20 18.1-27.5 18.1-3.7 0-9.4-4.4-9.4-16.9V117.7c0-15-4.2-21.7-16.6-21.7h-92.6c-9.4 0-15 7-15 13.5 0 14.2 21.2 17.5 23.4 57.5v86.8c0 19-3.4 22.5-10.9 22.5-20 0-68.6-73.4-97.4-157.4-5.8-16.3-11.5-22.9-26.6-22.9H38.8c-16.8 0-20.2 7.9-20.2 16.7 0 15.6 20 93.1 93.1 195.5C160.4 378.1 229 416 291.4 416c37.5 0 42.1-8.4 42.1-22.9 0-66.8-3.4-73.1 15.4-73.1 8.7 0 23.7 4.4 58.7 38.1 40 40 46.6 57.9 69 57.9h58.9c16.8 0 25.3-8.4 20.4-25-11.2-34.9-86.9-106.7-90.3-111.5-8.7-11.2-6.2-16.2 0-26.2.1-.1 72-101.3 79.4-135.6z"/></symbol></svg>