<svg xmlns="http://www.w3.org/2000/svg" width="49" height="37" viewBox="0 0 55.6 42"><defs><style>.cls-1{fill:#f5ed25}</style></defs><g id="Слой_2" data-name="Слой 2"><g id="Слой_1-2" data-name="Слой 1"><g id="Слой_2-2" data-name="Слой 2"><g id="Слой_1-2-2" data-name="Слой 1-2"><path class="cls-1" d="M0 42l1.71-13.31c.51-4 1-8.07 1.53-12.11Q4.07 10 4.93 3.4L5.38.01H55c.5 0 .67.11.62.62a13.36 13.36 0 000 1.41c-.15.08-.12.22-.13.35-.11.93-.23 1.87-.34 2.8L53.83 16l-1.13 9.66-1.29 10.94c-.22 1.8-.45 3.6-.67 5.4zm18.69-14.41l.66-.69c1.41-1.41 2.75-2.88 4-4.43a12.12 12.12 0 001.88-2.92 6.27 6.27 0 00-1.54-7.47c-3.41-2.78-10.18-1.88-11.48 4.23a3.39 3.39 0 000 1.47A2.27 2.27 0 0014 19.53a1.86 1.86 0 002.2-1.13 24.12 24.12 0 011.18-2.4 1.9 1.9 0 012.34-.8 1.93 1.93 0 011 2.25 6.51 6.51 0 01-1.46 2.77c-1.94 2.52-4.12 4.84-6.23 7.22A7 7 0 0012 28.8a2 2 0 001.32 3 3.84 3.84 0 001.06.13h8.94a4.55 4.55 0 001.68-.26 1.9 1.9 0 001.4-1.92 1.93 1.93 0 00-1.4-1.9 4.24 4.24 0 00-1.45-.27zM41 18.79v-3.9a3.92 3.92 0 00-2-3.55 3.69 3.69 0 00-5 1.45c-1.87 2.87-3.66 5.79-5.48 8.7a6.46 6.46 0 00-1 3 2.41 2.41 0 002.14 2.76 6.87 6.87 0 001 .08h5.45c.41 0 .54.11.53.52a12.09 12.09 0 00.12 2.82 1.8 1.8 0 001.08 1.44 2.2 2.2 0 003.1-1.87 16.83 16.83 0 000-2.22c0-.51.13-.71.64-.74a1.47 1.47 0 001.52-1.09c.38-1.57-.09-2.69-1.69-2.83-.4 0-.47-.2-.46-.55v-4z"/><path d="M18.69 27.59h4.83a4.24 4.24 0 011.45.27 1.93 1.93 0 011.41 1.91A1.9 1.9 0 0125 31.68a4.55 4.55 0 01-1.65.27h-8.96a3.84 3.84 0 01-1.06-.13 2 2 0 01-1.32-3 7.1 7.1 0 011.06-1.39c2.11-2.38 4.29-4.7 6.23-7.22a6.61 6.61 0 001.46-2.77 1.94 1.94 0 00-1-2.25 1.9 1.9 0 00-2.34.8 23 23 0 00-1.15 2.42A1.86 1.86 0 0114 19.54a2.26 2.26 0 01-1.82-1.76 3.39 3.39 0 010-1.47c1.3-6.11 8.06-7 11.48-4.23a6.27 6.27 0 011.54 7.47 12.24 12.24 0 01-1.88 2.92c-1.26 1.54-2.61 3-4 4.43-.15.17-.32.35-.63.69zM41 18.79v4c0 .35.06.51.46.55 1.6.14 2.08 1.26 1.69 2.83a1.47 1.47 0 01-1.52 1.09c-.51 0-.67.23-.64.74a16.83 16.83 0 010 2.22 2.2 2.2 0 01-3.1 1.87 1.79 1.79 0 01-1.08-1.44 12.32 12.32 0 01-.12-2.82c0-.42-.12-.53-.53-.52h-5.45a6.87 6.87 0 01-1-.08 2.41 2.41 0 01-2.14-2.76 6.46 6.46 0 011-3c1.81-2.91 3.61-5.83 5.48-8.7a3.69 3.69 0 015-1.45 3.93 3.93 0 011.94 3.55c.06 1.3 0 2.6 0 3.9zm-4.4-3.34l-4.86 7.83h4.49c.3 0 .38-.12.38-.4-.01-2.41-.01-4.82-.01-7.43z" fill="#242021"/><path class="cls-1" d="M36.6 15.45v7.44c0 .28-.07.4-.38.4h-4.49z"/></g></g></g></g></svg>